# xmcd
#
# Track frame offsets:
#	150
#	28280
#	83004
#	146852
#	209867
#	277603
#
# Disc length: 4040 seconds
#
# Revision: 0
# Processed by: cddbd v1.5.1PL2 Copyright (c) Steve Scherf et al.
# Submitted via: EasyCDDAExtractor 9.0.0.1
#
DISCID=570fc606
DTITLE=Phil Lesh and Friends - Tower Theatre 2-25-2006 (disk 3)
DYEAR=2006
DGENRE=Rock and Roll
TTITLE0=Feedback
TTITLE1=Caution
TTITLE2=Fire on the Mountain
TTITLE3=Morning Dew
TTITLE4=I Know You Rider
TTITLE5=Box of Rain
EXTD=
EXTT0=
EXTT1=
EXTT2=
EXTT3=
EXTT4=
EXTT5=
PLAYORDER=
